<?xml version="1.0" encoding="UTF-8"?>
<!DOCTYPE svg PUBLIC "-//W3C//DTD SVG 1.1//EN" "http://www.w3.org/Graphics/SVG/1.1/DTD/svg11.dtd">
<!-- Creator: CorelDRAW -->
<svg xmlns="http://www.w3.org/2000/svg" xml:space="preserve" width="27.9398mm" height="18.6266mm" version="1.1" style="shape-rendering:geometricPrecision; text-rendering:geometricPrecision; image-rendering:optimizeQuality; fill-rule:evenodd; clip-rule:evenodd"
viewBox="0 0 2793.98 1862.66"
 xmlns:xlink="http://www.w3.org/1999/xlink"
 xmlns:xodm="http://www.corel.com/coreldraw/odm/2003">
 <defs>
  <style type="text/css">
   <![CDATA[
    .fil0 {fill:#5F52A7}
    .fil1 {fill:url(#id0);fill-rule:nonzero}
    .fil2 {fill:url(#id1);fill-rule:nonzero}
   ]]>
  </style>
  <linearGradient id="id0" gradientUnits="objectBoundingBox" x1="0%" y1="25.5752%" x2="0%" y2="165.164%">
   <stop offset="0" style="stop-opacity:1; stop-color:#5F52A7"/>
   <stop offset="1" style="stop-opacity:1; stop-color:#978FC9"/>
  </linearGradient>
  <linearGradient id="id1" gradientUnits="objectBoundingBox" xlink:href="#id0" x1="0%" y1="0%" x2="0%" y2="67.4509%">
  </linearGradient>
 </defs>
 <g id="Layer_x0020_1">
  <metadata id="CorelCorpID_0Corel-Layer"/>
  <g id="_1959962929408">
   <path class="fil0" d="M480.2 274.27c46.94,-3.98 113.12,-16.21 156.03,-34.93 28.64,-12.49 55.85,-21.93 84.71,-35.6 37.38,-17.7 73.84,-37.31 111.15,-54.94 193.69,-90.84 336.19,-131.29 554.91,-90.69 30.92,6.44 61.02,16.75 92.52,23.88 35,7.92 55.72,20.34 88.31,33.67 49.86,20.39 108.41,51.51 156.06,77.47 44.57,24.28 88.46,49.68 131.98,75.79 19.65,11.79 39.15,23.81 58.37,36.29 9.73,6.33 15.79,12.65 24.82,13.88l-0.92 6.06c-33.19,-18.78 -75.96,-40.37 -117.96,-57.54 -43.1,-17.61 -85.59,-29.24 -130.84,-45.43 -90.26,-16.06 -151.46,-27.97 -246.6,-23.7 -43.03,1.93 -77.12,4.22 -120.12,12.47 -29.77,5.94 -61.13,14.94 -91.28,21.84 -25.6,5.86 -52.71,16.71 -78.29,24.77 -7.91,2.49 -15.81,4.99 -23.71,7.55l-95.25 37.83c-19.26,8.6 -29.71,13.89 -47.97,24.56 -15.36,8.98 -31.62,17 -47.4,25.27 -16.73,8.83 -36.63,15.07 -45.52,-8 -14.24,-44.4 31.84,-82.59 60.05,-110.2 30.14,-29.51 45.45,-35.59 80.46,-56.24 39.99,-23.39 90.01,-48 144.37,-55.54l53.13 -7.2 71.27 -8.71c-70.03,8.47 -126.27,-2.96 -217.25,36.4 -26.74,11.57 -59.27,28.19 -82.89,44.17 -44.73,32.54 -82.37,53.95 -110.36,104.18 -18.28,32.81 -11.13,60.04 2.74,93.03 21.54,46.03 54.25,70.63 92.47,101.42 14.19,11.42 27.09,19.93 43.22,28.4 32.87,16.87 9.2,15.37 -12.57,6.19 -46.02,-19.86 -88.57,-46.72 -130.3,-74.2 -6.74,-4.43 -13.45,-8.71 -20.33,-12.93 -18.14,-1.31 -54.07,7.05 -80.42,7.54 -26.47,0.66 -41.96,2.21 -68.91,-1.52 -27.47,-3.5 -49.46,-2.6 -77.83,-7.96 -22.37,-4.22 -44.85,-7.61 -66.9,-11.8 -61.62,-12.01 -167.75,-45.24 -221.36,-77.19 -19.53,-11.64 -40.65,-18.22 -61.65,-29.55 -16.41,-8.84 -32.6,-18.48 -48.33,-28.49 -18.74,-12.02 -29.98,-18.04 -45.7,-30.79 -11.89,-9.36 -21.98,-17.1 -33.73,-26.89 -25.25,-20.74 -51.36,-38.56 -76.88,-59.92 -8.51,-7.13 -42.8,-32.87 -47.53,-40.06 -11.45,-17.37 28.06,13.56 29.24,14.39 19.39,13.58 38.99,26.13 59.02,38.72 22.14,13.91 43.67,26.04 67.36,37.16 98.46,45.56 177.48,64.61 286.61,57.09z"/>
   <path class="fil0" d="M2725.11 812.17c-0.85,0.36 -0.81,0.3 0,0zm-1122.62 -434.63c31.07,-9.58 52.08,-19.15 85.35,-25.67 86.39,-16.94 209.81,-15.42 296.3,2.28 184.08,40.77 337.24,141.85 488.53,250.16 76.91,57.37 147.08,127.41 227.37,187.56 85.07,63.75 -96.18,-53.66 -96.75,-54.04 -169.51,-113.34 -270.8,-179.76 -483.48,-186.81 -29.53,-0.97 -57.56,-0.3 -87.03,0.91 -93.27,7.65 -211.4,38.57 -297.28,76.37 -54.04,23.78 -122.49,13.07 -72.64,-64.19l9.82 -15.23c39.06,-49.43 121.13,-85.96 181.3,-100.69 61.8,-14.52 102.82,-4.9 162.75,-6.35 36.02,-0.87 -80.01,-10.24 -80.86,-10.26 -70.04,-1.9 -114.8,17.14 -178.13,41.98 -54.18,21.18 -70.3,38.54 -106.64,83.4 -42.96,72.46 38.02,156.91 88.23,203.02 14.1,12.95 89.02,67.68 90.67,69.67 -4.93,10.12 -121.34,-47.62 -135.37,-56.31 -31.42,-19.5 -56.75,-36.93 -86.34,-59.07 -24.02,-17.96 -19.32,-11.13 -46.54,-2.92 -35.42,10.69 -75.13,19.99 -111.28,29.51l-7.66 2.02c-77.47,14.71 -97.58,13.09 -160.81,21.88 -127.91,11.05 -235.5,-2.24 -354.39,-22.35 -47.37,-8.42 -115.03,-31.52 -160.66,-47.9 -42.94,-15.44 -70.34,-26.35 -110.55,-48.63 -25.08,-13.89 -51.66,-24.18 -77.55,-37.84 -45.89,-24.21 -163.04,-88.84 -196.3,-123.21 2.6,0.74 136.86,75.61 185.08,95.71 155.8,64.4 304.63,100 471.76,55.78l4.14 -1.11c62.49,-17.65 138.25,-44.31 193.7,-77.72 17.69,-10.66 38.26,-19.58 56.9,-29.72 11.27,-6.13 21.26,-11.03 33.09,-16.07 7.65,-3.18 18.3,-12.57 27.5,-17.75 85.54,-48.16 152.66,-86.77 247.77,-116.41z"/>
  </g>
  <g id="_1959962929936">
   <path class="fil1" d="M372.82 761.94c42.1,0 82.71,5.67 121.71,17 39.13,11.33 73.27,29.41 102.41,54.38 29.28,24.82 51.14,53.57 65.71,85.95 14.44,32.38 21.73,69.76 21.73,111.86 0,44.39 -7.96,85 -23.89,121.98 -15.92,37.1 -38.99,68.54 -69.08,94.31 -29.96,25.91 -65.85,44.8 -107.54,56.81 -41.56,12.01 -85.01,17.94 -130.08,17.94 -44.52,0 -87.3,-5.8 -128.05,-17.54 -40.88,-11.74 -76.37,-30.76 -106.59,-56.94 -30.23,-26.31 -51.68,-55.45 -64.23,-87.57 -12.68,-32.25 -19.02,-67.87 -19.02,-107.13 0,-57.75 13.35,-108.49 40.07,-152.07 26.85,-43.58 66.52,-77.72 119.14,-102.28 52.49,-24.42 111.73,-36.7 177.71,-36.7zm-7.15 119.01c-30.36,0 -57.89,7.42 -82.45,22.4 -24.55,14.84 -43.44,35.62 -56.67,62.07 -13.22,26.58 -19.83,55.05 -19.83,85.27 0,28.07 6.07,53.57 18.08,76.78 12.01,23.34 30.22,41.42 54.92,54.51 24.55,13.09 50.6,19.57 77.99,19.57 29.41,0 56.26,-7.29 80.69,-22 24.42,-14.57 43.17,-35.22 55.99,-61.66 12.82,-26.58 19.16,-54.38 19.16,-83.39 0,-28.2 -5.93,-54.24 -17.81,-78.13 -11.87,-23.88 -29.41,-42.5 -52.35,-55.59 -22.94,-13.22 -48.85,-19.83 -77.72,-19.83z"/>
   <path id="_1" class="fil1" d="M741.99 1311.65l12.55 -175.68 4.05 -100.93c0.27,-18.22 0.4,-36.7 0.4,-55.73 0,-19.29 -0.27,-43.17 -0.81,-71.65 31.85,0.54 57.22,0.81 75.84,0.81 21.99,0 47.09,-0.27 75.56,-0.81l-1.76 45.21c10.39,-11.61 18.89,-20.24 25.51,-25.91 6.61,-5.67 14.03,-10.79 22.53,-15.38 8.5,-4.59 17.41,-8.1 26.58,-10.26 9.31,-2.29 18.89,-3.37 29.01,-3.37 9.45,0 20.11,1.35 31.71,4.05 0.27,28.74 0.94,52.35 2.02,71.11l2.84 60.85c-14.57,-4.32 -28.2,-6.48 -40.89,-6.48 -15.92,0 -29.55,2.3 -41.02,6.89 -11.46,4.58 -21.72,11.6 -30.63,21.04 -8.77,9.32 -15.92,20.92 -21.18,34.95 -5.26,13.9 -9.04,36.03 -11.06,66.39 -2.16,30.22 -3.24,64.9 -3.24,103.9 0,13.76 0.54,30.76 1.62,51 -25.64,-0.54 -51.41,-0.81 -77.18,-0.81 -25.64,0 -53.17,0.27 -82.45,0.81z"/>
   <path id="_2" class="fil1" d="M1127.89 1022.63c5,-25.91 8.1,-43.72 9.45,-53.57 1.35,-9.72 3.51,-25.1 6.34,-46.01 75.83,-16.73 141,-25.1 195.38,-25.1 31.04,0 59.51,3.51 85.28,10.52 25.77,6.89 45.88,18.22 60.31,33.74 14.44,15.51 21.73,37.78 21.73,66.79 0,14.71 -2.03,47.9 -5.94,99.58 -3.91,51.54 -6.88,119.28 -8.91,203.07 -25.9,-0.54 -51.67,-0.81 -77.18,-0.81 -24.82,0 -51.27,0.27 -79.2,0.81 3.64,-29.01 7.55,-88.92 12.01,-179.73 -9.99,4.86 -17.81,8.37 -23.48,10.39 -5.67,2.16 -15.52,5.4 -29.69,9.72 -14.3,4.31 -25.36,7.82 -33.32,10.79 -7.96,2.97 -14.98,6.75 -20.92,11.33 -5.94,4.46 -10.12,9.18 -12.55,14.04 -2.56,4.72 -3.77,10.12 -3.77,16.05 0,9.04 3.64,16.87 10.79,23.35 7.15,6.34 18.49,9.58 34.14,9.58 5.53,0 11.47,-0.41 17.94,-1.35 6.35,-0.95 15.12,-3.11 26.18,-6.75 -7.69,19.97 -16.87,49.12 -27.53,87.44 -22.66,3.78 -44.12,5.66 -64.36,5.66 -32.65,0 -59.91,-4.58 -81.63,-13.62 -21.73,-9.18 -38.46,-23.89 -50.2,-44.13 -11.74,-20.37 -17.54,-40.61 -17.54,-60.99 0,-12.41 2.16,-24.55 6.48,-36.43 4.32,-11.87 11.06,-23.47 20.37,-34.81 9.18,-11.33 19.97,-21.05 32.25,-29.01 12.42,-8.1 29.28,-15.65 50.6,-22.8 21.46,-7.15 48.58,-13.77 81.5,-20.11 13.63,-2.7 26.18,-5.53 37.65,-8.5 11.33,-3.1 19.56,-5.67 24.42,-7.96 4.86,-2.29 8.77,-4.86 11.74,-7.83 3.1,-3.1 5.26,-6.2 6.47,-9.44 1.35,-3.37 2.03,-6.75 2.03,-10.39 0,-10.12 -4.18,-17.95 -12.55,-23.34 -8.37,-5.54 -20.78,-8.23 -36.97,-8.23 -45.2,0 -100.93,12.68 -167.32,38.05z"/>
   <path id="_3" class="fil1" d="M1581.67 1311.65l11.34 -190.66 6.47 -149.23 0.81 -64.1c29.01,0.54 54.51,0.81 76.64,0.81 25.1,0 49.39,-0.27 73.14,-0.81l-2.84 53.17c8.1,-10.53 15.12,-18.76 20.78,-24.29 5.53,-5.67 12.55,-11.06 20.65,-16.33 8.23,-5.12 16.59,-9.17 25.36,-12.14 8.64,-3.1 18.49,-5.53 29.28,-7.42 10.8,-1.76 22.13,-2.7 33.87,-2.7 13.5,0 25.91,1.08 37.24,3.37 11.34,2.16 21.05,5 29.28,8.5 8.1,3.38 15.25,7.29 21.32,11.88 6.07,4.45 11.34,9.44 15.92,15.11 4.73,5.67 9.99,13.9 16.06,24.69 11.61,-16.73 23.75,-29.55 36.7,-38.32 12.82,-8.63 27.53,-14.98 43.99,-19.16 16.46,-4.05 33.33,-6.07 50.74,-6.07 22.8,0 44.39,3.24 64.63,9.85 20.24,6.61 36.97,17.95 49.92,34.27 13.09,16.19 19.57,37.11 19.57,63.02 0,12 -0.81,30.35 -2.57,54.91 -1.62,24.43 -3.91,66.52 -6.88,126.16 -2.97,59.64 -4.59,101.47 -4.86,125.49 -24.28,-0.54 -47.76,-0.81 -70.43,-0.81 -27.66,0 -56.54,0.27 -86.9,0.81 2.57,-33.46 5.13,-75.43 7.7,-125.89 2.69,-50.47 3.91,-85.41 3.91,-104.84 0,-17 -1.89,-29.82 -5.8,-38.19 -3.92,-8.36 -8.91,-14.03 -14.98,-17.14 -6.07,-3.1 -12.82,-4.58 -20.11,-4.58 -7.69,0 -14.43,1.48 -20.24,4.32 -6.2,3.23 -11.6,8.09 -16.32,14.7 -6.21,8.77 -11.34,19.84 -15.11,33.06 -3.24,10.39 -5.67,26.04 -7.43,47.36 -1.89,21.59 -3.37,50.06 -4.45,85.28l-3.24 105.92c-28.33,-0.54 -53.97,-0.81 -76.64,-0.81 -23.34,0 -50.73,0.27 -82.31,0.81 2.43,-23.48 5.13,-62.88 8.23,-118.2 3.24,-55.32 4.73,-92.29 4.73,-110.91 0,-15.79 -1.49,-27.66 -4.73,-35.49 -3.1,-7.96 -7.55,-14.17 -13.35,-18.89 -5.67,-4.72 -13.23,-7.15 -22.81,-7.15 -10.25,0 -19.29,2.97 -26.98,9.04 -7.7,6.07 -14.31,14.71 -19.7,26.04 -5.4,11.33 -9.31,26.99 -11.47,46.82 -2.3,19.84 -4.32,50.2 -5.94,90.94 -1.75,40.89 -2.83,80.15 -3.37,117.8 -31.85,-0.54 -57.62,-0.81 -77.45,-0.81 -21.86,0 -48.98,0.27 -81.37,0.81z"/>
   <path id="_4" class="fil1" d="M2372.77 1022.63c5,-25.91 8.1,-43.72 9.45,-53.57 1.35,-9.72 3.51,-25.1 6.34,-46.01 75.83,-16.73 141,-25.1 195.38,-25.1 31.04,0 59.51,3.51 85.28,10.52 25.77,6.89 45.88,18.22 60.31,33.74 14.44,15.51 21.73,37.78 21.73,66.79 0,14.71 -2.03,47.9 -5.94,99.58 -3.91,51.54 -6.88,119.28 -8.91,203.07 -25.9,-0.54 -51.67,-0.81 -77.18,-0.81 -24.82,0 -51.27,0.27 -79.2,0.81 3.64,-29.01 7.55,-88.92 12.01,-179.73 -9.99,4.86 -17.81,8.37 -23.48,10.39 -5.67,2.16 -15.52,5.4 -29.69,9.72 -14.3,4.31 -25.36,7.82 -33.32,10.79 -7.96,2.97 -14.98,6.75 -20.92,11.33 -5.94,4.46 -10.12,9.18 -12.55,14.04 -2.56,4.72 -3.77,10.12 -3.77,16.05 0,9.04 3.64,16.87 10.79,23.35 7.15,6.34 18.49,9.58 34.14,9.58 5.53,0 11.47,-0.41 17.94,-1.35 6.35,-0.95 15.12,-3.11 26.18,-6.75 -7.69,19.97 -16.87,49.12 -27.53,87.44 -22.66,3.78 -44.12,5.66 -64.36,5.66 -32.65,0 -59.91,-4.58 -81.63,-13.62 -21.73,-9.18 -38.46,-23.89 -50.2,-44.13 -11.74,-20.37 -17.54,-40.61 -17.54,-60.99 0,-12.41 2.16,-24.55 6.48,-36.43 4.32,-11.87 11.06,-23.47 20.37,-34.81 9.18,-11.33 19.97,-21.05 32.25,-29.01 12.42,-8.1 29.28,-15.65 50.6,-22.8 21.46,-7.15 48.58,-13.77 81.5,-20.11 13.63,-2.7 26.18,-5.53 37.65,-8.5 11.33,-3.1 19.56,-5.67 24.42,-7.96 4.86,-2.29 8.77,-4.86 11.74,-7.83 3.1,-3.1 5.26,-6.2 6.47,-9.44 1.35,-3.37 2.03,-6.75 2.03,-10.39 0,-10.12 -4.18,-17.95 -12.55,-23.34 -8.37,-5.54 -20.78,-8.23 -36.97,-8.23 -45.2,0 -100.93,12.68 -167.32,38.05z"/>
   <path class="fil2" d="M229.54 1646.96c-0.75,5.85 -2.48,16.66 -5.18,32.35l-5.63 35.2c-23.04,5.7 -45.63,8.55 -67.62,8.55 -15.99,0 -30.03,-1.65 -42.11,-4.8 -14.18,-3.83 -27.02,-10.58 -38.28,-20.26 -11.63,-9.99 -20.04,-21.77 -25.36,-35.43 -6.31,-15.99 -9.46,-33.85 -9.46,-53.66 0,-18.16 3.08,-35.65 9.23,-52.54 6.16,-16.89 15.31,-30.77 27.32,-41.65 12.01,-10.96 25.37,-18.24 40.08,-21.99 14.63,-3.76 30.85,-5.63 48.63,-5.63 10.36,0 20.87,0.52 31.45,1.65 10.58,1.12 23.64,3.6 39.18,7.35l0.45 5.03c0.37,5.26 0.75,10.66 0.97,16.14 0.15,5.48 0.68,14.11 1.36,25.97l1.27 19.51c-20.94,-7.2 -39.48,-10.81 -55.61,-10.81 -11.56,0 -21.77,2.25 -30.47,6.68 -8.71,4.43 -15.17,10.89 -19.37,19.29 -4.13,8.41 -6.23,18.16 -6.23,29.27 0,11.26 1.88,20.64 5.63,28.22 3.75,7.66 9.68,13.36 17.94,17.11 8.18,3.83 17.19,5.71 27.02,5.71 5.03,0 10.88,-0.53 17.71,-1.58 6.83,-0.97 12.76,-2.17 17.86,-3.38 5.03,-1.27 11.41,-3.37 19.22,-6.3z"/>
   <path id="_1_0" class="fil2" d="M290.71 1556.45c2.78,-14.41 4.5,-24.32 5.25,-29.8 0.75,-5.4 1.95,-13.96 3.53,-25.59 42.18,-9.31 78.43,-13.96 108.68,-13.96 17.26,0 33.1,1.95 47.43,5.85 14.34,3.83 25.52,10.13 33.55,18.76 8.03,8.64 12.08,21.02 12.08,37.16 0,8.18 -1.12,26.64 -3.3,55.38 -2.18,28.68 -3.83,66.35 -4.95,112.96 -14.41,-0.3 -28.75,-0.45 -42.93,-0.45 -13.81,0 -28.52,0.15 -44.06,0.45 2.03,-16.14 4.2,-49.46 6.68,-99.97 -5.55,2.7 -9.91,4.65 -13.06,5.78 -3.15,1.2 -8.63,3 -16.51,5.4 -7.96,2.4 -14.11,4.35 -18.54,6.01 -4.43,1.65 -8.33,3.75 -11.63,6.3 -3.3,2.48 -5.63,5.1 -6.98,7.81 -1.43,2.62 -2.1,5.63 -2.1,8.93 0,5.03 2.02,9.38 6,12.98 3.98,3.53 10.28,5.33 18.99,5.33 3.08,0 6.38,-0.22 9.98,-0.75 3.53,-0.53 8.41,-1.73 14.56,-3.75 -4.28,11.11 -9.38,27.32 -15.31,48.63 -12.61,2.1 -24.54,3.15 -35.8,3.15 -18.16,0 -33.32,-2.55 -45.41,-7.58 -12.08,-5.1 -21.39,-13.28 -27.92,-24.54 -6.53,-11.33 -9.75,-22.59 -9.75,-33.92 0,-6.91 1.2,-13.66 3.6,-20.27 2.4,-6.6 6.15,-13.06 11.33,-19.36 5.11,-6.31 11.11,-11.71 17.94,-16.14 6.9,-4.5 16.29,-8.7 28.14,-12.68 11.94,-3.98 27.02,-7.66 45.34,-11.18 7.58,-1.51 14.56,-3.08 20.94,-4.73 6.3,-1.73 10.88,-3.15 13.58,-4.43 2.7,-1.28 4.88,-2.7 6.53,-4.35 1.73,-1.73 2.93,-3.46 3.6,-5.26 0.75,-1.87 1.13,-3.75 1.13,-5.78 0,-5.63 -2.33,-9.98 -6.98,-12.98 -4.65,-3.08 -11.56,-4.58 -20.57,-4.58 -25.14,0 -56.14,7.06 -93.06,21.17z"/>
   <path id="_2_1" class="fil2" d="M535.91 1820.33c2.7,-30.09 5.03,-60.11 6.9,-89.99 3.31,-51.26 5.56,-94.19 6.83,-128.86 1.2,-34.75 1.81,-69.05 1.81,-103.13 29.87,-4.5 53.21,-7.5 70.09,-9 16.97,-1.5 33.85,-2.25 50.74,-2.25 21.17,0 40.6,2.17 58.39,6.6 17.79,4.35 32.13,12.16 42.93,23.27 10.81,11.18 18.92,24.47 24.32,39.85 5.48,15.39 8.18,31.52 8.18,48.34 0,15.46 -2.18,30.32 -6.6,44.8 -4.43,14.41 -11.19,27.4 -20.34,39.03 -9.08,11.56 -19.59,20.11 -31.45,25.74 -11.86,5.56 -25.07,8.33 -39.63,8.33 -7.2,0 -14.63,-0.67 -22.36,-2.1 -7.74,-1.35 -15.09,-3.37 -22,-6 -6.9,-2.7 -12.68,-5.33 -17.33,-8.03 -4.66,-2.7 -10.43,-6.68 -17.34,-11.79l-2.33 61.4c-1.05,28.14 -1.5,49.38 -1.5,63.79 -16.96,-0.3 -31.52,-0.45 -43.68,-0.45 -10.51,0 -25.74,0.15 -45.63,0.45zm101.32 -265.16c-1.2,6.53 -2.03,11.86 -2.48,15.99 -0.45,4.12 -0.82,9.75 -1.27,16.73 -0.45,7.06 -0.68,12.69 -0.68,16.89 0,11.86 1.88,21.84 5.63,29.87 3.75,8.11 9.01,14.34 15.69,18.76 6.68,4.43 13.88,6.61 21.54,6.61 8.1,0 15.53,-2.25 22.29,-6.83 6.83,-4.58 12.23,-11.48 16.21,-20.57 3.98,-9.15 5.93,-19.43 5.93,-30.92 0,-15.53 -4.13,-27.99 -12.46,-37.45 -8.33,-9.38 -20.49,-14.11 -36.4,-14.11 -9.98,0 -21.32,1.65 -34,5.03z"/>
   <path id="_3_2" class="fil2" d="M850.98 1464.58c0.9,-17.41 1.35,-31.15 1.35,-41.28 0,-2.93 -0.07,-6.9 -0.22,-11.86 17.71,0.3 32.5,0.45 44.51,0.45 16.51,0 30.99,-0.15 43.45,-0.45 -0.45,4.51 -0.75,8.33 -0.9,11.41l-1.28 27.25c-0.3,4.05 -0.45,8.93 -0.45,14.48 -14.48,-0.3 -28.37,-0.45 -41.73,-0.45 -13.73,0 -28.67,0.15 -44.73,0.45zm-13.96 252.63c2.03,-17.94 3.53,-32.65 4.51,-44.21 1.05,-11.63 2.02,-26.42 2.92,-44.5 0.98,-18.02 1.8,-37.98 2.48,-59.82 0.75,-21.92 1.35,-47.28 1.73,-76.18 19.06,0.3 34.3,0.45 45.7,0.45 10.44,0 25.37,-0.15 44.89,-0.45 -2.41,27.69 -4.13,52.09 -5.11,73.1 -1.05,20.94 -1.72,43.16 -2.02,66.65 -0.53,41.65 -0.83,70.02 -0.83,84.96 -17.49,-0.3 -32.5,-0.45 -45.18,-0.45 -12.46,0 -28.82,0.15 -49.09,0.45z"/>
   <path id="_4_3" class="fil2" d="M1142.79 1652.81c-2.63,12.31 -4.95,24.4 -6.83,36.18l-4.88 26.87c-14.56,3.08 -25.89,5.1 -34,5.93 -8.18,0.82 -16.06,1.27 -23.71,1.27 -12.46,0 -23.57,-1.05 -33.25,-3.22 -9.68,-2.1 -17.79,-6.01 -24.24,-11.64 -6.46,-5.63 -10.89,-12.16 -13.21,-19.44 -2.33,-7.35 -3.53,-15.16 -3.53,-23.34 0,-1.5 0.07,-4.05 0.22,-7.8 0.15,-3.76 0.68,-12.09 1.5,-25l4.81 -76.17 -34.45 0c0.75,-10.14 1.42,-23.42 1.95,-39.93l0.68 -20.42 36.55 0c0.9,-6.75 2.02,-21.46 3.3,-44.13l37.68 -7.8c6.9,-1.35 21.61,-4.73 44.13,-10.21 -1.05,19.21 -1.8,39.93 -2.18,62.14l49.91 0c-1.2,30.4 -1.73,50.51 -1.73,60.35l-50.43 0 -2.63 55.08c-0.3,8.19 -0.45,13.44 -0.45,15.84 0,7.06 0.75,12.91 2.33,17.64 1.5,4.65 4.28,8.03 8.18,10.13 3.9,2.03 8.18,3.08 12.91,3.08 3.53,0 7.2,-0.23 11.03,-0.75 3.83,-0.53 10.58,-2.03 20.34,-4.66z"/>
   <path id="_5" class="fil2" d="M1191.35 1556.45c2.78,-14.41 4.5,-24.32 5.25,-29.8 0.75,-5.4 1.95,-13.96 3.53,-25.59 42.18,-9.31 78.43,-13.96 108.68,-13.96 17.26,0 33.1,1.95 47.43,5.85 14.34,3.83 25.52,10.13 33.55,18.76 8.03,8.64 12.08,21.02 12.08,37.16 0,8.18 -1.12,26.64 -3.3,55.38 -2.18,28.68 -3.83,66.35 -4.95,112.96 -14.41,-0.3 -28.75,-0.45 -42.93,-0.45 -13.81,0 -28.52,0.15 -44.06,0.45 2.03,-16.14 4.2,-49.46 6.68,-99.97 -5.55,2.7 -9.91,4.65 -13.06,5.78 -3.15,1.2 -8.63,3 -16.51,5.4 -7.96,2.4 -14.11,4.35 -18.54,6.01 -4.43,1.65 -8.33,3.75 -11.63,6.3 -3.3,2.48 -5.63,5.1 -6.98,7.81 -1.43,2.62 -2.1,5.63 -2.1,8.93 0,5.03 2.02,9.38 6,12.98 3.98,3.53 10.28,5.33 18.99,5.33 3.08,0 6.38,-0.22 9.98,-0.75 3.53,-0.53 8.41,-1.73 14.56,-3.75 -4.28,11.11 -9.38,27.32 -15.31,48.63 -12.61,2.1 -24.54,3.15 -35.8,3.15 -18.16,0 -33.32,-2.55 -45.41,-7.58 -12.08,-5.1 -21.39,-13.28 -27.92,-24.54 -6.53,-11.33 -9.75,-22.59 -9.75,-33.92 0,-6.91 1.2,-13.66 3.6,-20.27 2.4,-6.6 6.15,-13.06 11.33,-19.36 5.11,-6.31 11.11,-11.71 17.94,-16.14 6.9,-4.5 16.29,-8.7 28.14,-12.68 11.94,-3.98 27.02,-7.66 45.34,-11.18 7.58,-1.51 14.56,-3.08 20.94,-4.73 6.3,-1.73 10.88,-3.15 13.58,-4.43 2.7,-1.28 4.88,-2.7 6.53,-4.35 1.73,-1.73 2.93,-3.46 3.6,-5.26 0.75,-1.87 1.13,-3.75 1.13,-5.78 0,-5.63 -2.33,-9.98 -6.98,-12.98 -4.65,-3.08 -11.56,-4.58 -20.57,-4.58 -25.14,0 -56.14,7.06 -93.06,21.17z"/>
   <path id="_6" class="fil2" d="M1442.85 1717.21l3.91 -47.36 8.48 -164.52 2.4 -88.48c20.34,0.3 35.65,0.45 45.93,0.45 13.36,0 28.07,-0.15 44.21,-0.45l-4.96 67.54 -8.03 166.4 -1.72 66.42c-15.76,-0.15 -29.87,-0.23 -42.48,-0.23l-47.74 0.23z"/>
   <path id="_7" class="fil2" d="M1859.17 1652.81c-2.63,12.31 -4.95,24.4 -6.83,36.18l-4.88 26.87c-14.56,3.08 -25.89,5.1 -34,5.93 -8.18,0.82 -16.06,1.27 -23.71,1.27 -12.46,0 -23.57,-1.05 -33.25,-3.22 -9.68,-2.1 -17.79,-6.01 -24.24,-11.64 -6.46,-5.63 -10.89,-12.16 -13.21,-19.44 -2.33,-7.35 -3.53,-15.16 -3.53,-23.34 0,-1.5 0.07,-4.05 0.22,-7.8 0.15,-3.76 0.68,-12.09 1.5,-25l4.81 -76.17 -34.45 0c0.75,-10.14 1.42,-23.42 1.95,-39.93l0.68 -20.42 36.55 0c0.9,-6.75 2.02,-21.46 3.3,-44.13l37.68 -7.8c6.9,-1.35 21.61,-4.73 44.13,-10.21 -1.05,19.21 -1.8,39.93 -2.18,62.14l49.91 0c-1.2,30.4 -1.73,50.51 -1.73,60.35l-50.43 0 -2.63 55.08c-0.3,8.19 -0.45,13.44 -0.45,15.84 0,7.06 0.75,12.91 2.33,17.64 1.5,4.65 4.28,8.03 8.18,10.13 3.9,2.03 8.18,3.08 12.91,3.08 3.53,0 7.2,-0.23 11.03,-0.75 3.83,-0.53 10.58,-2.03 20.34,-4.66z"/>
   <path id="_8" class="fil2" d="M1886.56 1717.21l6.98 -97.72 2.26 -56.14c0.15,-10.13 0.22,-20.41 0.22,-31 0,-10.73 -0.15,-24.01 -0.45,-39.85 17.71,0.3 31.82,0.45 42.18,0.45 12.23,0 26.19,-0.15 42.03,-0.45l-0.98 25.14c5.78,-6.45 10.51,-11.25 14.19,-14.41 3.68,-3.15 7.8,-6 12.53,-8.55 4.73,-2.55 9.68,-4.51 14.79,-5.71 5.18,-1.27 10.51,-1.87 16.13,-1.87 5.26,0 11.19,0.75 17.64,2.25 0.15,15.98 0.53,29.12 1.13,39.55l1.57 33.85c-8.1,-2.4 -15.68,-3.6 -22.74,-3.6 -8.85,0 -16.43,1.27 -22.81,3.83 -6.38,2.55 -12.09,6.45 -17.04,11.7 -4.88,5.18 -8.86,11.64 -11.78,19.44 -2.93,7.73 -5.03,20.04 -6.16,36.93 -1.2,16.81 -1.8,36.1 -1.8,57.79 0,7.66 0.3,17.11 0.9,28.37 -14.26,-0.3 -28.59,-0.45 -42.93,-0.45 -14.26,0 -29.57,0.15 -45.86,0.45z"/>
   <path id="_9" class="fil2" d="M2326.45 1717.21c-16.73,-0.3 -30.69,-0.45 -41.8,-0.45 -13.81,0 -27.62,0.15 -41.58,0.45l-0.3 -30.17c-5.33,6.68 -9.76,11.63 -13.44,14.93 -3.67,3.31 -7.65,6.23 -12,8.71 -4.28,2.55 -9.16,4.73 -14.49,6.53 -5.33,1.88 -11.48,3.3 -18.46,4.28 -6.98,1.05 -14.04,1.57 -21.17,1.57 -11.63,0 -22.59,-1.35 -32.87,-4.05 -10.36,-2.78 -19.44,-7.35 -27.25,-13.81 -7.88,-6.45 -13.2,-13.81 -16.06,-22.06 -2.85,-8.26 -4.27,-17.79 -4.27,-28.67 0,-2.63 0.22,-6.76 0.67,-12.31l3.45 -49.99c1.05,-18.31 2.03,-38.65 2.86,-60.94 0.6,-13.66 0.9,-26.57 0.9,-38.73 18.16,0.3 33.62,0.45 46.3,0.45 12.91,0 27.1,-0.15 42.63,-0.45l-6.83 83.83c-1.05,12.76 -1.57,21.47 -1.65,26.12 -0.07,4.58 -0.15,7.73 -0.15,9.31 0,15.54 3.08,26.04 9.31,31.52 6.15,5.48 13.58,8.18 22.22,8.18 3.45,0 6.98,-0.52 10.43,-1.57 3.53,-0.98 6.9,-2.48 10.05,-4.43 2.78,-1.73 5.33,-3.98 7.66,-6.61 2.48,-2.77 4.65,-6.15 6.61,-10.13 2.32,-4.88 4.05,-10.13 5.25,-15.68 1.57,-7.81 2.78,-17.72 3.68,-29.65 0.6,-8.63 1.5,-23.64 2.55,-44.88l1.87 -46.01c18.99,0.3 34.53,0.45 46.76,0.45 13.66,0 27.4,-0.15 41.21,-0.45 -3.31,37.3 -5.93,72.73 -7.81,106.28 -1.87,33.62 -3.3,73.1 -4.28,118.43z"/>
   <path id="_10" class="fil2" d="M2374.41 1713.16c-0.6,-6.46 -1.12,-13.29 -1.72,-20.42 -0.6,-7.13 -1.5,-16.96 -2.86,-29.42l-1.72 -15.91c14.18,5.63 26.34,9.83 36.55,12.53 10.21,2.78 19.66,4.13 28.22,4.13 7.2,0 12.98,-0.67 17.41,-1.95 4.5,-1.35 7.73,-3.23 9.76,-5.7 2.02,-2.48 3.08,-5.03 3.08,-7.66 0,-2.4 -0.76,-4.65 -2.33,-6.98 -1.5,-2.25 -4.95,-5.33 -10.36,-9.31 -11.93,-8.78 -22.44,-16.81 -31.52,-24.01 -9.08,-7.13 -15.91,-13.51 -20.49,-19.14 -4.58,-5.55 -8.11,-11.56 -10.51,-18.01 -2.4,-6.46 -3.6,-13.14 -3.6,-19.97 0,-12.23 3.45,-23.56 10.43,-34.15 6.91,-10.5 17.19,-18.16 30.7,-22.96 13.51,-4.73 30.02,-7.13 49.46,-7.13 20.34,0 46.23,2.7 77.83,8.1l3.6 61.25c-17.64,-6.91 -34.6,-10.36 -50.96,-10.36 -11.48,0 -19.89,1.2 -25.07,3.53 -5.18,2.4 -7.73,6 -7.73,10.95 0,1.58 0.3,3.16 0.9,4.58 0.53,1.5 1.65,3 3.16,4.66 1.5,1.57 3.45,3.22 5.7,4.95 2.25,1.65 7.73,5.55 16.51,11.71 8.78,6.15 15.61,11.26 20.57,15.23 8.18,6.46 14.41,12.39 18.76,17.87 4.28,5.55 7.58,11.4 9.83,17.63 2.25,6.23 3.38,12.76 3.38,19.67 0,10.43 -2.55,19.96 -7.58,28.67 -5.03,8.78 -12.69,16.06 -22.89,21.91 -10.14,5.86 -21.17,9.91 -33.1,12.24 -11.86,2.25 -24.09,3.37 -36.7,3.37 -8.48,0 -19.14,-0.75 -31.98,-2.17 -12.83,-1.5 -27.69,-4.06 -44.73,-7.73z"/>
   <path id="_11" class="fil2" d="M2757.56 1652.81c-2.63,12.31 -4.95,24.4 -6.83,36.18l-4.88 26.87c-14.56,3.08 -25.89,5.1 -34,5.93 -8.18,0.82 -16.06,1.27 -23.71,1.27 -12.46,0 -23.57,-1.05 -33.25,-3.22 -9.68,-2.1 -17.79,-6.01 -24.24,-11.64 -6.46,-5.63 -10.89,-12.16 -13.21,-19.44 -2.33,-7.35 -3.53,-15.16 -3.53,-23.34 0,-1.5 0.07,-4.05 0.22,-7.8 0.15,-3.76 0.68,-12.09 1.5,-25l4.81 -76.17 -34.45 0c0.75,-10.14 1.42,-23.42 1.95,-39.93l0.68 -20.42 36.55 0c0.9,-6.75 2.02,-21.46 3.3,-44.13l37.68 -7.8c6.9,-1.35 21.61,-4.73 44.13,-10.21 -1.05,19.21 -1.8,39.93 -2.18,62.14l49.91 0c-1.2,30.4 -1.73,50.51 -1.73,60.35l-50.43 0 -2.63 55.08c-0.3,8.19 -0.45,13.44 -0.45,15.84 0,7.06 0.75,12.91 2.33,17.64 1.5,4.65 4.28,8.03 8.18,10.13 3.9,2.03 8.18,3.08 12.91,3.08 3.53,0 7.2,-0.23 11.03,-0.75 3.83,-0.53 10.58,-2.03 20.34,-4.66z"/>
  </g>
 </g>
</svg>
