<?xml version="1.0" encoding="UTF-8"?>
<!DOCTYPE svg PUBLIC "-//W3C//DTD SVG 1.1//EN" "http://www.w3.org/Graphics/SVG/1.1/DTD/svg11.dtd">
<!-- Creator: CorelDRAW -->
<svg xmlns="http://www.w3.org/2000/svg" xml:space="preserve" width="42.3332mm" height="18.6266mm" version="1.1" style="shape-rendering:geometricPrecision; text-rendering:geometricPrecision; image-rendering:optimizeQuality; fill-rule:evenodd; clip-rule:evenodd"
viewBox="0 0 4233.32 1862.66"
 xmlns:xlink="http://www.w3.org/1999/xlink"
 xmlns:xodm="http://www.corel.com/coreldraw/odm/2003">
 <defs>
  <style type="text/css">
   <![CDATA[
    .fil0 {fill:#5F52A7}
    .fil1 {fill:url(#id0);fill-rule:nonzero}
   ]]>
  </style>
  <linearGradient id="id0" gradientUnits="objectBoundingBox" x1="46.3238%" y1="0%" x2="46.3256%" y2="95.5563%">
   <stop offset="0" style="stop-opacity:1; stop-color:#5F52A7"/>
   <stop offset="1" style="stop-opacity:1; stop-color:#978FC9"/>
  </linearGradient>
 </defs>
 <g id="Layer_x0020_1">
  <metadata id="CorelCorpID_0Corel-Layer"/>
  <g id="_2297763192416">
   <g>
    <path class="fil0" d="M1060.4 411.97c55.08,-4.66 132.72,-19.02 183.07,-40.98 33.59,-14.65 65.52,-25.73 99.39,-41.76 43.86,-20.78 86.62,-43.78 130.4,-64.47 227.25,-106.58 394.44,-154.03 651.06,-106.4 36.28,7.56 71.59,19.66 108.55,28.02 41.07,9.29 65.37,23.86 103.61,39.5 58.5,23.93 127.2,60.44 183.1,90.9 52.29,28.48 103.79,58.29 154.85,88.91 23.05,13.85 45.93,27.94 68.48,42.58 11.42,7.44 18.53,14.85 29.12,16.29l-1.08 7.12c-38.94,-22.05 -89.12,-47.37 -138.4,-67.51 -50.56,-20.67 -100.41,-34.31 -153.5,-53.31 -105.91,-18.84 -177.71,-32.82 -289.34,-27.81 -50.48,2.26 -90.47,4.95 -140.92,14.63 -34.93,6.98 -71.73,17.53 -107.1,25.63 -30.04,6.87 -61.84,19.61 -91.85,29.06 -9.29,2.92 -18.56,5.86 -27.82,8.86l-111.76 44.39c-22.6,10.08 -34.85,16.29 -56.27,28.81 -18.03,10.54 -37.11,19.95 -55.62,29.65 -19.63,10.35 -42.98,17.67 -53.41,-9.39 -16.71,-52.09 37.35,-96.9 70.45,-129.29 35.37,-34.62 53.33,-41.76 94.41,-65.99 46.91,-27.44 105.61,-56.31 169.39,-65.16l62.32 -8.45 83.63 -10.22c-82.17,9.94 -148.16,-3.47 -254.89,42.71 -31.38,13.58 -69.54,33.07 -97.26,51.82 -52.48,38.18 -96.64,63.3 -129.48,122.24 -21.45,38.48 -13.06,70.44 3.21,109.15 25.28,54 63.65,82.86 108.49,118.98 16.65,13.41 31.79,23.38 50.71,33.33 38.57,19.79 10.8,18.03 -14.75,7.26 -53.99,-23.31 -103.9,-54.82 -152.86,-87.05 -7.91,-5.21 -15.79,-10.22 -23.86,-15.18 -21.29,-1.54 -63.44,8.27 -94.35,8.84 -31.06,0.78 -49.23,2.6 -80.86,-1.77 -32.22,-4.11 -58.03,-3.06 -91.31,-9.34 -26.25,-4.96 -52.62,-8.94 -78.49,-13.85 -72.29,-14.1 -196.81,-53.08 -259.72,-90.57 -22.91,-13.65 -47.69,-21.37 -72.33,-34.66 -19.25,-10.38 -38.25,-21.69 -56.7,-33.44 -21.99,-14.09 -35.18,-21.15 -53.61,-36.11 -13.96,-10.98 -25.79,-20.07 -39.59,-31.55 -29.62,-24.34 -60.25,-45.25 -90.19,-70.31 -9.99,-8.36 -50.22,-38.56 -55.77,-46.99 -13.43,-20.39 32.92,15.9 34.3,16.87 22.76,15.94 45.75,30.66 69.25,45.44 25.98,16.31 51.24,30.55 79.04,43.59 115.51,53.46 208.22,75.81 336.26,66.98z"/>
    <path class="fil0" d="M3694.28 1043.08c-1.01,0.41 -0.95,0.35 0,0zm-1317.13 -509.94c36.45,-11.25 61.1,-22.47 100.13,-30.12 101.36,-19.87 246.17,-18.09 347.64,2.68 215.98,47.83 395.68,166.43 573.17,293.5 90.24,67.3 172.58,149.48 266.77,220.06 99.81,74.79 -112.84,-62.96 -113.51,-63.41 -198.89,-132.98 -317.73,-210.91 -567.25,-219.17 -34.64,-1.15 -67.53,-0.36 -102.12,1.06 -109.42,8.98 -248.01,45.25 -348.78,89.6 -63.4,27.91 -143.71,15.34 -85.23,-75.31l11.53 -17.86c45.82,-57.99 142.12,-100.86 212.72,-118.14 72.5,-17.03 120.63,-5.75 190.94,-7.45 42.26,-1.02 -93.88,-12.02 -94.87,-12.04 -82.18,-2.22 -134.69,20.12 -209,49.26 -63.56,24.84 -82.47,45.22 -125.11,97.84 -50.4,85.02 44.6,184.1 103.52,238.2 16.54,15.19 104.44,79.41 106.37,81.74 -5.77,11.88 -142.36,-55.87 -158.82,-66.06 -36.87,-22.89 -66.58,-43.33 -101.3,-69.31 -28.18,-21.08 -22.67,-13.05 -54.61,-3.42 -41.55,12.53 -88.14,23.45 -130.56,34.62l-8.98 2.37c-90.89,17.26 -114.49,15.36 -188.67,25.67 -150.08,12.96 -276.31,-2.63 -415.8,-26.22 -55.57,-9.88 -134.96,-36.98 -188.49,-56.2 -50.39,-18.11 -82.53,-30.92 -129.71,-57.06 -29.42,-16.3 -60.61,-28.37 -90.98,-44.39 -53.85,-28.41 -191.3,-104.24 -230.31,-144.56 3.04,0.87 160.57,88.71 217.14,112.29 182.79,75.56 357.41,117.33 553.5,65.44l4.85 -1.3c73.32,-20.71 162.21,-51.99 227.27,-91.19 20.75,-12.5 44.89,-22.96 66.75,-34.86 13.23,-7.19 24.95,-12.94 38.84,-18.85 8.97,-3.74 21.46,-14.75 32.26,-20.83 100.36,-56.5 179.1,-101.81 290.7,-136.58z"/>
   </g>
   <path class="fil1" d="M477.09 1477.65c-2.4,11.91 -5.33,28.63 -8.78,49.95 -3.34,21.43 -5.64,38.04 -6.9,49.75 -43.68,6.69 -82.56,10.03 -116.83,10.03 -33.03,0 -63.86,-4.18 -92.28,-12.43 -28.43,-8.26 -54.56,-21.85 -78.28,-40.66 -23.83,-18.91 -40.76,-41.17 -51,-66.67 -10.14,-25.5 -15.26,-54.03 -15.26,-85.7 0,-36.99 6.9,-70.23 20.7,-99.7 13.69,-29.47 33.54,-54.13 59.36,-73.78 25.81,-19.75 54.13,-33.76 84.85,-42.22 30.83,-8.47 62.71,-12.75 95.52,-12.75 30.21,0 67.52,3.97 112.04,11.91l0.62 25.61c0.32,11.18 0.94,23.41 1.67,36.89l2.09 34.69c-23.82,-5.64 -43.16,-9.4 -58,-11.39 -14.84,-1.98 -28.53,-3.03 -41.17,-3.03 -27.49,0 -52.36,5.54 -74.41,16.51 -21.95,11.08 -39.3,27.07 -51.94,48.08 -12.65,21 -19.02,44.31 -19.02,69.81 0,23.2 5.33,43.16 15.88,59.88 10.66,16.62 24.98,29.47 42.96,38.56 18.08,9.1 40.34,13.59 66.88,13.59 14.42,0 30.2,-1.15 47.24,-3.45 17.03,-2.3 38.35,-6.79 64.06,-13.48z"/>
   <path id="_1" class="fil1" d="M550.04 1227.46c1.25,-24.24 1.88,-43.37 1.88,-57.48 0,-4.07 -0.1,-9.61 -0.31,-16.51 24.66,0.42 45.25,0.63 61.97,0.63 22.99,0 43.16,-0.21 60.51,-0.63 -0.63,6.27 -1.05,11.6 -1.25,15.88l-1.78 37.94c-0.42,5.64 -0.63,12.44 -0.63,20.17 -20.17,-0.42 -39.5,-0.63 -58.1,-0.63 -19.13,0 -39.93,0.21 -62.29,0.63zm-19.44 351.77c2.82,-24.98 4.91,-45.46 6.27,-61.55 1.47,-16.2 2.82,-36.79 4.08,-61.98 1.36,-25.08 2.51,-52.88 3.45,-83.29 1.04,-30.51 1.88,-65.84 2.4,-106.07 26.54,0.42 47.76,0.62 63.64,0.62 14.53,0 35.33,-0.2 62.5,-0.62 -3.34,38.56 -5.75,72.52 -7.11,101.79 -1.46,29.15 -2.4,60.09 -2.82,92.8 -0.73,58 -1.15,97.5 -1.15,118.3 -24.35,-0.42 -45.25,-0.63 -62.91,-0.63 -17.35,0 -40.13,0.21 -68.35,0.63z"/>
   <path id="_2" class="fil1" d="M718.72 1722.82c3.76,-41.91 7,-83.71 9.61,-125.3 4.6,-71.38 7.74,-131.16 9.51,-179.44 1.67,-48.39 2.51,-96.15 2.51,-143.59 41.59,-6.27 74.1,-10.45 97.61,-12.54 23.62,-2.09 47.13,-3.14 70.65,-3.14 29.47,0 56.53,3.03 81.3,9.2 24.77,6.06 44.73,16.93 59.78,32.4 15.05,15.57 26.34,34.07 33.86,55.49 7.63,21.42 11.39,43.89 11.39,67.3 0,21.53 -3.03,42.22 -9.2,62.39 -6.16,20.07 -15.57,38.15 -28.32,54.35 -12.64,16.09 -27.27,28 -43.79,35.84 -16.51,7.73 -34.9,11.6 -55.17,11.6 -10.04,0 -20.38,-0.94 -31.15,-2.92 -10.76,-1.89 -21,-4.71 -30.62,-8.37 -9.61,-3.76 -17.66,-7.42 -24.14,-11.18 -6.48,-3.76 -14.53,-9.3 -24.14,-16.4l-3.24 85.48c-1.46,39.19 -2.09,68.77 -2.09,88.83 -23.62,-0.42 -43.89,-0.62 -60.82,-0.62 -14.63,0 -35.85,0.2 -63.54,0.62zm141.08 -369.22c-1.67,9.09 -2.82,16.51 -3.45,22.26 -0.62,5.75 -1.15,13.59 -1.77,23.31 -0.63,9.82 -0.94,17.66 -0.94,23.51 0,16.51 2.61,30.41 7.83,41.59 5.23,11.29 12.54,19.96 21.85,26.13 9.3,6.17 19.33,9.2 29.99,9.2 11.29,0 21.63,-3.14 31.04,-9.51 9.51,-6.38 17.03,-15.99 22.57,-28.64 5.54,-12.75 8.26,-27.07 8.26,-43.06 0,-21.63 -5.75,-38.98 -17.35,-52.14 -11.6,-13.07 -28.53,-19.65 -50.69,-19.65 -13.9,0 -29.68,2.3 -47.34,7z"/>
   <path id="_3" class="fil1" d="M1138 1579.23c3.35,-30.41 5.64,-55.49 7.11,-75.04 2.92,-41.07 5.95,-88.83 8.99,-143.17 1.88,-35.95 3.34,-70.44 4.18,-103.46 0.94,-33.13 1.46,-65.32 1.46,-96.57 25.81,0.42 46.92,0.63 63.23,0.63 22.05,0 42.84,-0.21 62.39,-0.63l-6.48 74.2c-1.05,12.23 -2.72,37.1 -4.92,74.41 6.69,-8.57 12.23,-14.94 16.52,-19.12 4.28,-4.18 8.98,-8.05 14.21,-11.6 5.23,-3.56 10.45,-6.59 15.88,-9.09 5.44,-2.41 11.6,-4.6 18.71,-6.38 7,-1.88 14.74,-3.34 23.2,-4.28 8.47,-1.05 17.25,-1.57 26.23,-1.57 17.35,0 34.07,1.98 50.27,5.85 16.2,3.87 30.1,10.66 41.49,20.38 11.39,9.61 19.12,20.48 23.2,32.4 4.08,12.01 6.17,25.08 6.17,39.4 0,5.53 -0.11,12.85 -0.42,21.94 -0.32,9.09 -0.94,20.59 -1.88,34.38l-6.48 103.26c-0.84,12.85 -1.26,23.62 -1.36,32.08 -0.11,8.47 -0.21,19.13 -0.21,31.98 -21.21,-0.42 -41.59,-0.63 -61.03,-0.63 -21.84,0 -44.1,0.21 -66.57,0.63 3.45,-27.17 6.58,-58.42 9.19,-93.95 2.72,-35.43 4.08,-61.76 4.08,-79.11 0,-19.23 -4.08,-32.71 -12.12,-40.45 -8.05,-7.73 -18.71,-11.6 -31.98,-11.6 -11.81,0 -22.26,2.41 -31.46,7.32 -8.15,4.28 -15.26,10.97 -21.42,19.96 -5.23,7.52 -9.62,18.5 -13.17,32.71 -4.08,17.35 -7.21,43.06 -9.41,76.92 -1.35,18.81 -2.61,48.17 -3.86,88.2 -20.69,-0.42 -39.92,-0.63 -57.9,-0.63 -18.18,0 -40.13,0.21 -65.84,0.63z"/>
   <path id="_4" class="fil1" d="M1870.18 1487.06c-2.61,12.22 -7.63,41.69 -15.05,88.41 -23.72,4.81 -43.68,7.94 -59.88,9.51 -16.2,1.57 -32.5,2.4 -49.12,2.4 -24.35,0 -46.82,-1.67 -67.2,-5.01 -20.48,-3.35 -38.14,-9.41 -52.98,-17.98 -14.84,-8.46 -27.28,-19.12 -37.31,-31.87 -10.03,-12.75 -17.66,-27.91 -22.89,-45.46 -5.22,-17.56 -7.84,-35.64 -7.84,-54.14 0,-26.13 5.23,-51.73 15.68,-76.71 10.35,-24.97 23.83,-44.52 40.24,-58.52 16.51,-14.11 35.42,-24.14 56.85,-29.99 21.42,-5.96 43.47,-8.89 65.94,-8.89 23.2,0 45.46,2.72 66.57,8.15 21.22,5.33 39.09,14.84 53.82,28.22 14.74,13.48 25.19,28.64 31.46,45.57 6.16,16.93 9.3,35.21 9.3,54.76 0,11.7 -1.25,24.56 -3.76,38.87l-215.39 0.32c-0.21,3.24 -0.31,6.16 -0.31,8.88 0,21.95 7.94,38.15 23.72,48.6 15.78,10.34 35.01,15.57 57.79,15.57 13.48,0 28.95,-1.57 46.3,-4.71 17.24,-3.13 38.66,-8.46 64.06,-15.98zm-189.16 -99.08l101.37 0c0.21,-3.45 0.32,-6.37 0.32,-8.88 0,-10.56 -1.88,-19.65 -5.65,-27.17 -3.86,-7.53 -9.3,-12.96 -16.3,-16.41 -7.1,-3.45 -15.05,-5.22 -23.83,-5.22 -6.16,0 -12.01,0.94 -17.76,2.92 -5.75,1.88 -10.98,4.81 -15.57,8.57 -4.6,3.76 -8.47,8.05 -11.5,12.96 -3.03,4.81 -5.33,9.61 -6.79,14.11 -1.36,4.6 -2.82,10.97 -4.29,19.12z"/>
   <path id="_5" class="fil1" d="M1937.17 1579.23l9.71 -136.07 3.14 -78.17c0.21,-14.11 0.31,-28.42 0.31,-43.16 0,-14.94 -0.21,-33.44 -0.62,-55.49 24.66,0.42 44.31,0.62 58.73,0.62 17.03,0 36.47,-0.2 58.52,-0.62l-1.36 35.01c8.05,-8.99 14.64,-15.68 19.76,-20.07 5.12,-4.39 10.86,-8.36 17.45,-11.91 6.58,-3.56 13.48,-6.27 20.59,-7.94 7.21,-1.78 14.63,-2.62 22.47,-2.62 7.31,0 15.57,1.05 24.55,3.14 0.21,22.26 0.74,40.55 1.57,55.07l2.2 47.14c-11.29,-3.35 -21.85,-5.02 -31.67,-5.02 -12.33,0 -22.89,1.78 -31.77,5.33 -8.88,3.55 -16.82,8.99 -23.72,16.3 -6.79,7.21 -12.33,16.2 -16.41,27.07 -4.08,10.76 -7,27.9 -8.57,51.42 -1.67,23.41 -2.51,50.26 -2.51,80.47 0,10.66 0.42,23.82 1.26,39.5 -19.86,-0.42 -39.82,-0.63 -59.78,-0.63 -19.86,0 -41.18,0.21 -63.85,0.63z"/>
   <path id="_6" class="fil1" d="M2449.88 1579.23l-10.35 -56.33c-2.51,-13.38 -6.27,-31.87 -11.39,-55.81l-49.85 -228.87 -18.08 -77.23c25.71,0.42 46.51,0.63 62.5,0.63 17.87,0 38.77,-0.21 62.39,-0.63 5.53,33.34 9.92,57.69 13.16,73.26l25.71 123.43c5.33,26.54 11.29,58.94 17.77,97.19l10.14 -42.96 36.47 -141.5 25.18 -109.42c28.01,0.42 51.63,0.63 71.07,0.63 21.01,0 44.52,-0.21 70.65,-0.63l19.33 128.97 26.75 164.28 11.92 -45.04c2.3,-7.74 4.6,-15.68 7,-23.62 2.51,-7.94 7.63,-23.83 15.36,-47.45l37.31 -117.67 17.45 -59.47c24.67,0.21 45.05,0.32 61.14,0.32 18.08,0 38.35,-0.11 60.82,-0.32l-118.61 356.06 -19.02 62.18c-30.62,-0.42 -57.27,-0.63 -80.16,-0.63 -24.14,0 -50.69,0.21 -79.95,0.63l-7 -42.01 -26.86 -146.1c-1.46,-8.78 -2.71,-17.87 -3.86,-27.17 -1.05,-9.3 -2.62,-23.73 -4.71,-43.37l-10.76 47.55c-2.61,10.66 -5.44,21.32 -8.26,32.18l-49.53 178.92c-30.83,-0.42 -56.44,-0.63 -76.82,-0.63 -21.63,0 -47.23,0.21 -76.91,0.63z"/>
   <path id="_7" class="fil1" d="M3074.1 1355.38c3.86,-20.07 6.27,-33.86 7.31,-41.49 1.05,-7.53 2.72,-19.44 4.91,-35.64 58.74,-12.96 109.21,-19.44 151.33,-19.44 24.04,0 46.09,2.72 66.05,8.15 19.96,5.33 35.53,14.11 46.71,26.13 11.18,12.02 16.83,29.26 16.83,51.73 0,11.39 -1.57,37.1 -4.6,77.13 -3.03,39.92 -5.33,92.38 -6.9,157.28 -20.06,-0.42 -40.02,-0.63 -59.78,-0.63 -19.23,0 -39.71,0.21 -61.34,0.63 2.82,-22.47 5.85,-68.87 9.3,-139.2 -7.73,3.76 -13.79,6.48 -18.18,8.04 -4.39,1.68 -12.02,4.18 -23,7.53 -11.07,3.34 -19.64,6.06 -25.81,8.36 -6.16,2.3 -11.6,5.22 -16.2,8.78 -4.6,3.45 -7.84,7.1 -9.72,10.87 -1.98,3.65 -2.92,7.83 -2.92,12.43 0,7 2.82,13.07 8.36,18.08 5.54,4.91 14.32,7.42 26.44,7.42 4.28,0 8.88,-0.31 13.9,-1.04 4.91,-0.73 11.7,-2.41 20.27,-5.23 -5.96,15.47 -13.06,38.04 -21.32,67.72 -17.55,2.93 -34.17,4.39 -49.85,4.39 -25.29,0 -46.4,-3.55 -63.22,-10.55 -16.83,-7.11 -29.79,-18.5 -38.88,-34.18 -9.09,-15.78 -13.59,-31.45 -13.59,-47.23 0,-9.62 1.68,-19.02 5.02,-28.22 3.34,-9.2 8.57,-18.19 15.78,-26.96 7.11,-8.78 15.47,-16.31 24.98,-22.47 9.61,-6.27 22.68,-12.13 39.19,-17.66 16.61,-5.54 37.62,-10.66 63.12,-15.58 10.55,-2.09 20.27,-4.28 29.16,-6.58 8.78,-2.4 15.15,-4.39 18.91,-6.17 3.77,-1.77 6.8,-3.76 9.09,-6.06 2.41,-2.4 4.08,-4.8 5.02,-7.31 1.05,-2.62 1.57,-5.23 1.57,-8.05 0,-7.84 -3.24,-13.9 -9.72,-18.08 -6.48,-4.28 -16.09,-6.37 -28.64,-6.37 -35,0 -78.17,9.82 -129.58,29.47z"/>
   <path id="_8" class="fil1" d="M3509.16 1579.23l-32.4 -100.54 -73.16 -212.35c23.31,0.42 44.84,0.62 64.9,0.62 20.8,0 40.34,-0.2 58.73,-0.62 3.45,14.11 10.25,38.77 20.49,73.99 10.24,35.22 21.42,77.23 33.65,125.82l7.94 -25.39c1.26,-3.14 6.06,-16.2 14.42,-39.3l48.7 -135.12c22.05,0.42 42.85,0.62 62.39,0.62 20.28,0 41.28,-0.2 63.13,-0.62l-42.22 91.02 -78.7 180.8 -16.82 41.07c-24.14,-0.42 -45.36,-0.63 -63.75,-0.63 -19.96,0 -42.43,0.21 -67.3,0.63z"/>
   <path id="_9" class="fil1" d="M4097.95 1487.06c-2.61,12.22 -7.63,41.69 -15.05,88.41 -23.72,4.81 -43.68,7.94 -59.88,9.51 -16.2,1.57 -32.5,2.4 -49.12,2.4 -24.35,0 -46.82,-1.67 -67.2,-5.01 -20.48,-3.35 -38.14,-9.41 -52.98,-17.98 -14.84,-8.46 -27.28,-19.12 -37.31,-31.87 -10.03,-12.75 -17.66,-27.91 -22.89,-45.46 -5.22,-17.56 -7.84,-35.64 -7.84,-54.14 0,-26.13 5.23,-51.73 15.68,-76.71 10.35,-24.97 23.83,-44.52 40.24,-58.52 16.51,-14.11 35.42,-24.14 56.85,-29.99 21.42,-5.96 43.47,-8.89 65.94,-8.89 23.2,0 45.46,2.72 66.57,8.15 21.22,5.33 39.09,14.84 53.82,28.22 14.74,13.48 25.19,28.64 31.46,45.57 6.16,16.93 9.3,35.21 9.3,54.76 0,11.7 -1.25,24.56 -3.76,38.87l-215.39 0.32c-0.21,3.24 -0.31,6.16 -0.31,8.88 0,21.95 7.94,38.15 23.72,48.6 15.78,10.34 35.01,15.57 57.79,15.57 13.48,0 28.95,-1.57 46.3,-4.71 17.24,-3.13 38.66,-8.46 64.06,-15.98zm-189.16 -99.08l101.37 0c0.21,-3.45 0.32,-6.37 0.32,-8.88 0,-10.56 -1.88,-19.65 -5.65,-27.17 -3.86,-7.53 -9.3,-12.96 -16.3,-16.41 -7.1,-3.45 -15.05,-5.22 -23.83,-5.22 -6.16,0 -12.01,0.94 -17.76,2.92 -5.75,1.88 -10.98,4.81 -15.57,8.57 -4.6,3.76 -8.47,8.05 -11.5,12.96 -3.03,4.81 -5.33,9.61 -6.79,14.11 -1.36,4.6 -2.82,10.97 -4.29,19.12z"/>
  </g>
 </g>
</svg>
